<svg xmlns="http://www.w3.org/2000/svg" width="228.445" height="84.164" viewBox="0 0 228.445 84.164">
  <g id="logo" transform="translate(-73 -301)">
    <path id="Path_39" data-name="Path 39" d="M5.76-1.425V-52H20.077L27.7-31.3q.7,2.1,1.323,4.357t1.323,4.513h.311q.7-2.256,1.323-4.513T33.3-31.3L40.618-52H54.935V-1.425H42.8V-16.364q0-1.945.195-4.279t.428-4.785q.233-2.451.545-4.785t.545-4.2H44.2L40-22.277,33.771-5.549H26.613L20.388-22.277,16.342-34.415h-.311q.233,1.867.545,4.2t.545,4.785q.233,2.451.428,4.785t.195,4.279V-1.425Zm60.379,0V-52H79.522v18.83h.311L92.594-52h14.628L92.127-31.459,110.179-1.425H95.551l-11.2-19.452L79.522-14.03v12.6Zm56.177,0V-40.8H108.934V-52h40.149v11.2H135.7V-1.425Zm34.236,0V-52h32.991v11.2H169.935v9.648h16.807v11.2H169.935V-1.425Zm49.019,0V-18.854L190.321-52h14.317l3.735,10.582q.934,2.879,1.867,5.6t1.945,5.68h.311q1.011-2.957,1.984-5.68t1.984-5.6L220.2-52H234.2l-15.25,33.146V-1.425Z" transform="translate(67.24 353)" fill="#fff"/>
    <text id="Buy_and_sell_stuff_" data-name="Buy and sell stuff!" transform="translate(179.767 381.164)" fill="#fff" font-size="14" font-family="OpenSans, Open Sans" letter-spacing="0.04em"><tspan x="-62" y="0">Buy and sell stuff!</tspan></text>
  </g>
</svg>
